<?xml-stylesheet type="text/css" href="ec_svg_style.css"?>
<svg width="640" height="480" version="1.1" xmlns="http://www.w3.org/2000/svg" xmlns:xlink="http://www.w3.org/1999/xlink" viewBox="0 0 400 300">
	<defs>

		<!-- Background Color Gradient -->
		<radialGradient id="ecsvg_Background" cx="50%" cy="50%" r="50%">
			<stop offset="0%" stop-color="#222222" class="ecsvg-background-color1"/>
			<stop offset="100%" stop-color="#000000" class="ecsvg-background-color2"/>
		</radialGradient>

		<!-- Number 1 Graphic -->
		<path id="ecsvg_number1" fill="#09f625" class="ecsvg-theme-fill" d="M0.281,2.914H0.258l-1.355-0.731l-0.203,0.804l1.702,0.912h0.899v-7.797h-1.02V2.914z"/>

		<!-- Number 0 Graphic -->
		<path id="ecsvg_number0" fill="#09f625" class="ecsvg-theme-fill" d="M2.645,0.084c0-2.651-0.983-4.114-2.71-4.114c-1.523,0-2.555,1.427-2.579,4.006c0,2.614,1.127,4.054,2.71,4.054
			C1.709,4.03,2.645,2.566,2.645,0.084z M-1.589-0.036c0-2.027,0.624-3.178,1.583-3.178c1.08,0,1.595,1.259,1.595,3.25
			c0,1.919-0.492,3.178-1.583,3.178C-0.917,3.214-1.589,2.087-1.589-0.036z"/>

		<!-- Horizontal line -->
		<line id="ecsvg_line" stroke="#09f625" class="ecsvg-theme-stroke" x1="-200" y1="0" x2="200" y2="0" stroke-dasharray="2" stroke-width="1.5"/>

		<!-- Numbers 1s and 0s assembled in random locations -->
		<g id="ecsvg_numbers">
			<use opacity=".5" xlink:href="#ecsvg_number1" transform="matrix(1 0 0 -1 62 15)"/>
			<use xlink:href="#ecsvg_number0" transform="matrix(1 0 0 -1 90 31)"/>
			<use xlink:href="#ecsvg_number1" transform="matrix(1 0 0 -1 142 55)"/>
			<use opacity=".5" xlink:href="#ecsvg_number0" transform="matrix(1 0 0 -1 190 31)"/>
			<use xlink:href="#ecsvg_number0" transform="matrix(1.4 0 0 -1.4 301.6689 107.7886)"/>
			<use opacity=".5" xlink:href="#ecsvg_number1" transform="matrix(1 0 0 -1 200 7)"/>
			<use xlink:href="#ecsvg_number1" transform="matrix(1.2 0 0 -1.2 49.6655 83.8716)"/>
			<use xlink:href="#ecsvg_number0" transform="matrix(1.2 0 0 -1.2 56.8657 84.0298)"/>
			<use opacity=".3" xlink:href="#ecsvg_number1" transform="matrix(1.2 0 0 -1.2 62.8657 83.8716)"/>
			<use xlink:href="#ecsvg_number1" transform="matrix(1.2 0 0 -1.2 68.8657 83.8716)"/>
			<use xlink:href="#ecsvg_number0" transform="matrix(1.2 0 0 -1.2 76.0654 84.0298)"/>
			<use opacity=".5" xlink:href="#ecsvg_number1" transform="matrix(1.6 0 0 -1.6 152.4971 133.8193)"/>
			<use xlink:href="#ecsvg_number0" transform="matrix(1.6 0 0 -1.6 162.0967 134.0303)"/>
			<use xlink:href="#ecsvg_number1" transform="matrix(1.6 0 0 -1.6 170.0967 133.8193)"/>
			<use opacity=".3" xlink:href="#ecsvg_number0" transform="matrix(1.6 0 0 -1.6 179.6968 134.0303)"/>
			<use xlink:href="#ecsvg_number0" transform="matrix(1.6 0 0 -1.6 131.1997 173.4473)"/>
			<use xlink:href="#ecsvg_number1" transform="matrix(1.6 0 0 -1.6 139.1997 173.2383)"/>
			<use opacity=".5" xlink:href="#ecsvg_number0" transform="matrix(1.6 0 0 -1.6 148.7998 173.4473)"/>
			<use xlink:href="#ecsvg_number1" transform="matrix(1.4 0 0 -1.4 76.5313 133.8457)"/>
			<use xlink:href="#ecsvg_number0" transform="matrix(1.4 0 0 -1.4 84.9312 134.0303)"/>
			<use opacity=".3" xlink:href="#ecsvg_number1" transform="matrix(1 0 0 -1 348 33.8979)"/>
			<use xlink:href="#ecsvg_number0" transform="matrix(1 0 0 -1 354 34.0298)"/>
			<use xlink:href="#ecsvg_number1" transform="matrix(1 0 0 -1 359 33.8979)"/>
			<use opacity=".5" xlink:href="#ecsvg_number1" transform="matrix(1.4 0 0 -1.4 360.4688 99.3882)"/>
			<use xlink:href="#ecsvg_number0" transform="matrix(1.4 0 0 -1.4 353.2686 134.0303)"/>
			<use xlink:href="#ecsvg_number1" transform="matrix(1.4 0 0 -1.4 360.2686 133.8457)"/>
			<use opacity=".3" xlink:href="#ecsvg_number0" transform="matrix(1.6 0 0 -1.6 312.9033 184.0293)"/>
			<use xlink:href="#ecsvg_number1" transform="matrix(1.6 0 0 -1.6 320.9033 183.8203)"/>
			<use xlink:href="#ecsvg_number1" transform="matrix(1.6 0 0 -1.6 162 285)"/>
			<use opacity=".5" xlink:href="#ecsvg_number0" transform="matrix(1.8 0 0 -1.8 190 221)"/>
			<use xlink:href="#ecsvg_number0" transform="matrix(1.8 0 0 -1.8 290 221)"/>
			<use xlink:href="#ecsvg_number1" transform="matrix(1.8 0 0 -1.8 262 245)"/>
			<use opacity=".3" xlink:href="#ecsvg_number0" transform="matrix(1.4 0 0 -1.4 223.2686 112.0293)"/>
			<use opacity=".3" xlink:href="#ecsvg_number1" transform="matrix(1.4 0 0 -1.4 230.2686 111.8462)"/>
			<use xlink:href="#ecsvg_number0" transform="matrix(1.4 0 0 -1.4 238.6689 112.0293)"/>
			<use xlink:href="#ecsvg_number0" transform="matrix(1.4 0 0 -1.4 253.6689 145.7881)"/>
			<use opacity=".5" xlink:href="#ecsvg_number1" transform="matrix(1.4 0 0 -1.4 214.4688 179.3887)"/>
			<use xlink:href="#ecsvg_number1" transform="matrix(1.6 0 0 -1.6 94.8818 207)"/>
			<use xlink:href="#ecsvg_number1" transform="matrix(2 0 0 -2 339.6289 273.7676)"/>
			<use opacity=".3" xlink:href="#ecsvg_number0" transform="matrix(2 0 0 -2 351.6289 274.0293)"/>
			<use xlink:href="#ecsvg_number1" transform="matrix(2 0 0 -2 361.6289 273.7676)"/>
			<use xlink:href="#ecsvg_number1" transform="matrix(2 0 0 -2 371.6289 273.7676)"/>
			<use xlink:href="#ecsvg_number0" transform="matrix(2 0 0 -2 383.6289 274.0293)"/>
			<use opacity=".5" xlink:href="#ecsvg_number1" transform="matrix(1.8 0 0 -1.8 89.9639 243.7939)"/>
			<use xlink:href="#ecsvg_number0" transform="matrix(1.8 0 0 -1.8 100.7637 244.0293)"/>
			<use xlink:href="#ecsvg_number1" transform="matrix(1.8 0 0 -1.8 109.7637 243.7939)"/>
			<use opacity=".3" xlink:href="#ecsvg_number0" transform="matrix(1.8 0 0 -1.8 120.564 244.0293)"/>
			<use xlink:href="#ecsvg_number0" transform="matrix(2 0 0 -2 80.1294 278.0596)"/>
			<use opacity=".5" xlink:href="#ecsvg_number1" transform="matrix(2 0 0 -2 90.1294 277.7979)"/>
			<use xlink:href="#ecsvg_number0" transform="matrix(2 0 0 -2 102.1294 278.0596)"/>
			<use opacity=".3" xlink:href="#ecsvg_number1" transform="matrix(2 0 0 -2 28.1294 218.7676)"/>
			<use xlink:href="#ecsvg_number0" transform="matrix(2 0 0 -2 40.1294 219.0293)"/>
			<use opacity=".5" xlink:href="#ecsvg_number0" transform="matrix(1 0 0 -1 10 31)"/>
			<use xlink:href="#ecsvg_number0" transform="matrix(2 0 0 -2 237.0273 281.0293)"/>
			<use xlink:href="#ecsvg_number1" transform="matrix(2 0 0 -2 247.0273 280.7676)"/>
			<use xlink:href="#ecsvg_number0" transform="matrix(2 0 0 -2 259.0273 281.0293)"/>
			<use xlink:href="#ecsvg_number0" transform="matrix(1.4 0 0 -1.4 13.269 164.0293)"/>
			<use opacity=".5" xlink:href="#ecsvg_number1" transform="matrix(1.4 0 0 -1.4 20.269 163.8457)"/>
			<use xlink:href="#ecsvg_number0" transform="matrix(1.4 0 0 -1.4 259.6689 185.7891)"/>
			<use opacity=".3" xlink:href="#ecsvg_number0" transform="matrix(1 0 0 -1 310 11)"/>
			<use xlink:href="#ecsvg_number1" transform="matrix(1 0 0 -1 282 35)"/>
			<use opacity=".5" xlink:href="#ecsvg_number1" transform="matrix(1.8 0 0 -1.8 370.7998 201.7764)"/>
			<use xlink:href="#ecsvg_number1" transform="matrix(1.8 0 0 -1.8 313.5996 243.7939)"/>
			<use xlink:href="#ecsvg_number0" transform="matrix(1.8 0 0 -1.8 324.4004 244.0293)"/>
			<use opacity=".3" xlink:href="#ecsvg_number1" transform="matrix(1.8 0 0 -1.8 333.4004 243.7939)"/>
			<use opacity=".5" xlink:href="#ecsvg_number0" transform="matrix(1.8 0 0 -1.8 20 281)"/>
			<use xlink:href="#ecsvg_number0" transform="matrix(1.2 0 0 -1.2 190 76)"/>
		</g>

		<!-- Numbers set 1 doubled for looping -->
		<g id="ecsvg_numbers_set" opacity=".2">
			<use xlink:href="#ecsvg_numbers" transform="translate(0,0)" />
			<use xlink:href="#ecsvg_numbers" transform="translate(-400,0)" />
		</g>

		<!-- Numbers set 2 doubled for looping -->
		<g id="ecsvg_numbers_set2" opacity=".2" transfrom="scale(-1,1)">
			<use xlink:href="#ecsvg_numbers" transform="translate(0,0)" />
			<use xlink:href="#ecsvg_numbers" transform="translate(-400,0)" />
		</g>
	</defs>

	<!-- Background Gradient -->
	<rect width="400" height="300" fill="url(#ecsvg_Background)" />

	<!-- 4 Horizontal lines and Big numbers -->
	<g id="ecsvg_line1">
		<use xlink:href="#ecsvg_line"/>
		<g id="ecsvg_l1">
			<use xlink:href="#ecsvg_number1" x="0" y="20" transform="scale(3,-3)"/>
			<use xlink:href="#ecsvg_number0" x="8" y="20" transform="scale(3,-3)"/>
		</g>
	</g>
	<g id="ecsvg_line2">
		<use  xlink:href="#ecsvg_line"/>
		<g id="ecsvg_l2">
			<use xlink:href="#ecsvg_number0" x="0" y="30" transform="scale(3,-3)"/>
			<use xlink:href="#ecsvg_number1" x="8" y="30" transform="scale(3,-3)"/>
			<use xlink:href="#ecsvg_number1" x="16" y="30" transform="scale(3,-3)"/>
			<use xlink:href="#ecsvg_number0" x="24" y="30" transform="scale(3,-3)"/>
		</g>
	</g>
	<g id="ecsvg_line3">
		<use  xlink:href="#ecsvg_line"/>
		<g id="ecsvg_l3">
			<use xlink:href="#ecsvg_number1" x="0" y="30" transform="scale(3,-3)"/>
			<use xlink:href="#ecsvg_number0" x="8" y="30" transform="scale(3,-3)"/>
			<use xlink:href="#ecsvg_number1" x="16" y="30" transform="scale(3,-3)"/>
		</g>
	</g>
	<g id="ecsvg_line4">
		<use  xlink:href="#ecsvg_line"/>
	</g>

	<!-- Vertical lines with perspective -->
	<g id="ecsvg_grid_pers" fill="#FFFFFF"  class="ecsvg-theme-fill" transform="scale(1.5,1) translate(-80,0)" opacity=".5">
		<polygon points="-560.421,350.815 -561.579,349.185 3.421,-50.815 2.579,-49.185 "/>
		<polygon points="964.421,350.815 403.421,-49.185 402.579,-50.815 965.579,349.185 "/>
		<polygon points="821.007,348.854 366.192,-49.377 365.507,-50.885 822.321,347.346 "/>
		<polygon points="684.06,348.766 330.137,-49.464 329.628,-50.797 685.551,347.434 "/>
		<polygon points="543.302,348.635 293.072,-49.596 292.762,-50.666 544.991,347.564 "/>
		<polygon points="406.353,348.455 257.016,-49.775 256.885,-50.486 408.222,347.744 "/>
		<polygon points="269.438,348.226 220.991,-50.005 220.976,-50.256 271.422,347.974 "/>
		<polygon points="130.76,348.232 128.778,347.967 184.026,-50.263 184.009,-49.999 "/>
		<polygon points="-6.157,348.461 -8.022,347.738 148.118,-50.492 147.983,-49.77 "/>
		<polygon points="-143.105,348.639 -144.79,347.561 112.242,-50.67 111.926,-49.592 "/>
		<polygon points="-280.061,348.766 -281.552,347.434 76.372,-50.797 75.863,-49.464 "/>
		<polygon points="-417.007,348.854 -418.322,347.346 40.493,-50.885 39.808,-49.377 "/>
	</g>

	<!-- Random moving number sets one moves left and another towards right -->
	<use id="ecsvg_numbers_set_loop" xlink:href="#ecsvg_numbers_set"/>
	<use id="ecsvg_numbers_set_loop2" xlink:href="#ecsvg_numbers_set2"/>

	<!-- JavaScript takes care the entire animation part -->
	<script type="text/javascript"><![CDATA[
		(function() {

			//EDIT HERE	- Speed Settings -----------------
			var lineSpeed = 0.4;
			var numbersSpeed = 2;

			//DO NOT EDIT BELOW --------------------------
			var lastTime = 0;
			var vendors = ['ms', 'moz', 'webkit', 'o'];
			for(var x = 0; x < vendors.length && !window.requestAnimationFrame; ++x) {
				window.requestAnimationFrame = window[vendors[x]+'RequestAnimationFrame'];
				window.cancelAnimationFrame = window[vendors[x]+'CancelAnimationFrame'] || window[vendors[x]+'CancelRequestAnimationFrame'];
			}
			if (!window.requestAnimationFrame) {
				window.requestAnimationFrame = function(callback, element) {
					var currTime = new Date().getTime();
					var timeToCall = Math.max(0, 16 - (currTime - lastTime));
					var id = window.setTimeout(function() { callback(currTime + timeToCall); },
					  timeToCall);
					lastTime = currTime + timeToCall;
					return id;
				};
			}
			if (!window.cancelAnimationFrame){
				window.cancelAnimationFrame = function(id) {
					clearTimeout(id);
				};
			}
			//---------------------------------------------------------------------------------

			var lineSpace = 37;
			lineSpeed = lineSpeed/10;
			var lines = [];
			lines.push({p:0, a:0, t:document.getElementById("ecsvg_line1"), s: document.getElementById("ecsvg_l1"), sp:200});
			lines.push({p:lineSpace, a:lineSpace*lineSpeed, t:document.getElementById("ecsvg_line2"), s:document.getElementById("ecsvg_l2"), sp:200});
			lines.push({p:lineSpace*2, a:lineSpace*2*lineSpeed, t:document.getElementById("ecsvg_line3"),s:document.getElementById("ecsvg_l3"), sp:200});
			lines.push({p:lineSpace*3, a:lineSpace*3*lineSpeed, t:document.getElementById("ecsvg_line4"),s:"", sp:200});

			var GP = document.getElementById("ecsvg_grid_pers");
			var counter = 0;
			var increase = Math.PI * 2 / 400;

			var NL = document.getElementById("ecsvg_numbers_set_loop");
			var NL2 = document.getElementById("ecsvg_numbers_set_loop2");
			var NLPos = 0;
			function animate() {
				requestAnimationFrame(animate);
				for (var i = 0; i<4;i++){
					lines[i].a +=lineSpeed;
					lines[i].p += lines[i].a;
					if (lines[i].p>300){
						lines[i].p =0;
						lines[i].a=0;
						lines[i].sp=((Math.random()*10)*20)-150;
					}
					lines[i].t.setAttribute("transform", "scale(1,"+((lines[i].p/300)*3)+") translate(200,"+lines[i].p+")");
					lines[i].t.setAttribute("opacity", (lines[i].p/300)+.2);
					if (lines[i].s !=""){
						lines[i].s.setAttribute("transform","scale("+((lines[i].p/300)*3)+",1) translate("+lines[i].sp+",0)");
					}
				}

				counter += increase;
				GP.setAttribute("transform", "scale(1.5,1) translate("+(((Math.sin( counter ) / 2 + 0.5)*20)-85)+",0)");

				NLPos+= numbersSpeed;
				if (NLPos>400){
					NLPos -= 400;
				}

				NL.setAttribute("transform", "translate("+NLPos+","+((Math.sin( counter ) / 2 + 0.5)*20)+")");
				NL2.setAttribute("transform", "translate("+(-NLPos+400)+","+((Math.cos( counter ) / 2 + 0.5)*20)+")");

			}
			animate();
		}());
    ]]></script>
</svg>
